<svg width="200" height="193" viewBox="0 0 200 193" fill="none" xmlns="http://www.w3.org/2000/svg">
<path d="M0 11.0602C0 4.95181 4.94713 0 11.0497 0H188.95C195.053 0 200 4.95181 200 11.0602V115.579C200 158.337 165.37 193 122.652 193H77.3481C34.6299 193 0 158.337 0 115.579V11.0602Z" fill="#FFB500"/>
<path d="M71.3862 89.1718C71.0069 87.9804 70.4968 86.9134 69.8559 85.9708C69.228 85.0151 68.4759 84.2034 67.5996 83.5357C66.7233 82.8549 65.7227 82.3377 64.5978 81.9843C63.486 81.6308 62.2631 81.454 60.929 81.454C58.6662 81.454 56.6257 82.0366 54.8077 83.2018C52.9896 84.367 51.5508 86.0755 50.4914 88.3274C49.445 90.5661 48.9218 93.3089 48.9218 96.5557C48.9218 99.8157 49.4515 102.572 50.511 104.823C51.5704 107.075 53.0223 108.784 54.8665 109.949C56.7108 111.114 58.8101 111.697 61.1644 111.697C63.3487 111.697 65.2518 111.252 66.8737 110.361C68.5086 109.471 69.7708 108.214 70.6603 106.591C71.5628 104.954 72.014 103.03 72.014 100.817L73.5836 101.112H62.0865V96.104H77.8802V100.68C77.8802 104.057 77.1609 106.99 75.7221 109.478C74.2964 111.952 72.3214 113.863 69.797 115.212C67.2857 116.56 64.4082 117.235 61.1644 117.235C57.5282 117.235 54.3368 116.397 51.5901 114.721C48.8564 113.045 46.7244 110.669 45.1941 107.592C43.6638 104.503 42.8986 100.837 42.8986 96.595C42.8986 93.3874 43.3433 90.5072 44.2327 87.9542C45.1222 85.4013 46.3713 83.2346 47.9801 81.454C49.602 79.6604 51.505 78.2923 53.6894 77.3497C55.8867 76.394 58.2869 75.9161 60.8897 75.9161C63.061 75.9161 65.0818 76.2368 66.9522 76.8784C68.8356 77.5199 70.5098 78.4298 71.9748 79.6081C73.4528 80.7863 74.6757 82.1872 75.6436 83.8106C76.6115 85.4209 77.2655 87.208 77.6056 89.1718H71.3862Z" fill="black"/>
<path d="M81.2377 116.685V86.5207H86.9078V91.3124H87.2217C87.771 89.6889 88.7389 88.4125 90.1254 87.4829C91.5249 86.5403 93.1076 86.069 94.8733 86.069C95.2395 86.069 95.6712 86.0821 96.1682 86.1083C96.6783 86.1344 97.0773 86.1672 97.365 86.2065V91.823C97.1296 91.7575 96.711 91.6855 96.1093 91.6069C95.5077 91.5153 94.906 91.4695 94.3043 91.4695C92.9179 91.4695 91.6819 91.764 90.5963 92.3532C89.5237 92.9292 88.6735 93.7344 88.0457 94.7687C87.4179 95.7898 87.104 96.955 87.104 98.2642V116.685H81.2377Z" fill="black"/>
<path d="M107.074 117.352C105.165 117.352 103.438 116.999 101.895 116.292C100.351 115.572 99.1284 114.531 98.2259 113.17C97.3365 111.808 96.8918 110.139 96.8918 108.162C96.8918 106.46 97.2188 105.059 97.8728 103.959C98.5267 102.86 99.4096 101.989 100.521 101.347C101.633 100.706 102.876 100.222 104.249 99.8942C105.622 99.5669 107.022 99.3182 108.448 99.148C110.253 98.9385 111.718 98.7683 112.842 98.6374C113.967 98.4934 114.785 98.2642 115.295 97.95C115.805 97.6358 116.06 97.1252 116.06 96.4183V96.2808C116.06 94.5657 115.576 93.2369 114.608 92.2943C113.653 91.3516 112.228 90.8803 110.331 90.8803C108.356 90.8803 106.8 91.3189 105.662 92.1961C104.537 93.0601 103.759 94.0224 103.327 95.0829L97.8139 93.826C98.4679 91.9931 99.4227 90.5137 100.678 89.3878C101.947 88.2488 103.405 87.424 105.054 86.9134C106.702 86.3897 108.435 86.1279 110.253 86.1279C111.456 86.1279 112.731 86.2719 114.078 86.5599C115.439 86.8349 116.708 87.3455 117.885 88.0917C119.075 88.838 120.049 89.905 120.808 91.2927C121.567 92.6674 121.946 94.4544 121.946 96.6539V116.685H116.217V112.561H115.982C115.602 113.32 115.033 114.066 114.275 114.8C113.516 115.533 112.542 116.141 111.351 116.626C110.161 117.11 108.735 117.352 107.074 117.352ZM108.35 112.639C109.971 112.639 111.358 112.319 112.509 111.677C113.673 111.036 114.556 110.198 115.158 109.163C115.772 108.116 116.08 106.997 116.08 105.805V101.917C115.87 102.126 115.465 102.323 114.863 102.506C114.275 102.676 113.601 102.827 112.842 102.958C112.084 103.076 111.345 103.187 110.625 103.292C109.906 103.383 109.304 103.462 108.82 103.527C107.683 103.671 106.643 103.913 105.701 104.254C104.772 104.594 104.027 105.085 103.464 105.727C102.915 106.355 102.64 107.193 102.64 108.24C102.64 109.694 103.177 110.793 104.249 111.54C105.322 112.273 106.688 112.639 108.35 112.639Z" fill="black"/>
<path d="M128.521 127.996C127.645 127.996 126.847 127.924 126.127 127.78C125.408 127.649 124.872 127.505 124.519 127.348L125.931 122.537C127.004 122.825 127.959 122.949 128.796 122.91C129.633 122.871 130.372 122.557 131.013 121.967C131.667 121.378 132.242 120.416 132.739 119.081L133.465 117.078L122.439 86.5207H128.717L136.349 109.929H136.663L144.295 86.5207H150.593L138.174 120.711C137.598 122.282 136.866 123.61 135.976 124.697C135.087 125.797 134.028 126.622 132.798 127.172C131.569 127.721 130.143 127.996 128.521 127.996Z" fill="black"/>
</svg>
